<svg width="3938" height="2475" xmlns="http://www.w3.org/2000/svg" xmlns:xlink="http://www.w3.org/1999/xlink" overflow="hidden"><defs><clipPath id="clip0"><rect x="231" y="0" width="3938" height="2475"/></clipPath><clipPath id="clip1"><rect x="697" y="669" width="3006" height="1137"/></clipPath><clipPath id="clip2"><rect x="697" y="669" width="3006" height="1137"/></clipPath><clipPath id="clip3"><rect x="697" y="669" width="3006" height="1137"/></clipPath><linearGradient x1="1.18197" y1="16313.9" x2="687.879" y2="16313.9" gradientUnits="userSpaceOnUse" spreadMethod="pad" id="fill4"><stop offset="0" stop-color="#656565"/><stop offset="1" stop-color="#010101"/></linearGradient><linearGradient x1="1.18197" y1="15946.4" x2="687.879" y2="15946.4" gradientUnits="userSpaceOnUse" spreadMethod="pad" id="fill5"><stop offset="0" stop-color="#656565"/><stop offset="1" stop-color="#010101"/></linearGradient><linearGradient x1="-1.75921" y1="741.068" x2="696.648" y2="741.068" gradientUnits="userSpaceOnUse" spreadMethod="pad" id="fill6"><stop offset="0" stop-color="#4F4F4F"/><stop offset="1"/></linearGradient><linearGradient x1="-1.75921" y1="393.624" x2="696.648" y2="393.624" gradientUnits="userSpaceOnUse" spreadMethod="pad" id="fill7"><stop offset="0" stop-color="#4F4F4F"/><stop offset="1"/></linearGradient><linearGradient x1="-1.75921" y1="566.466" x2="696.648" y2="566.466" gradientUnits="userSpaceOnUse" spreadMethod="pad" id="fill8"><stop offset="0" stop-color="#C40000"/><stop offset="1" stop-color="#FF0000"/></linearGradient><linearGradient x1="-1.75921" y1="217.263" x2="696.648" y2="217.263" gradientUnits="userSpaceOnUse" spreadMethod="pad" id="fill9"><stop offset="0" stop-color="#C40000"/><stop offset="1" stop-color="#FF0000"/></linearGradient><linearGradient x1="-1.75921" y1="914.79" x2="696.648" y2="914.79" gradientUnits="userSpaceOnUse" spreadMethod="pad" id="fill10"><stop offset="0" stop-color="#C40000"/><stop offset="1" stop-color="#FF0000"/></linearGradient></defs><g clip-path="url(#clip0)" transform="translate(-231 0)"><path d="M590.306 824.765 401.676 824.765 401.676 1409.06 324.614 1409.06 324.614 824.765 137.134 824.765 137.134 755.754 590.306 755.754 590.306 824.765ZM945.713 942.084 730.629 1483.82C692.673 1580.44 638.614 1628.74 569.603 1628.74 550.05 1628.74 533.947 1626.44 521.295 1622.99L521.295 1556.28C537.398 1562.03 552.35 1564.33 565.002 1564.33 602.958 1564.33 630.563 1541.33 650.116 1496.47L686.922 1407.91 505.193 942.084 588.006 942.084 714.526 1300.94C715.676 1305.54 719.127 1317.04 723.728 1336.6L726.028 1336.6C727.178 1329.7 730.629 1318.19 735.229 1302.09L867.501 942.084 945.713 942.084 945.713 942.084ZM1067.63 1341.2 1065.33 1341.2 1065.33 1622.99 990.57 1622.99 990.57 942.084 1065.33 942.084 1065.33 1023.75 1067.63 1023.75C1104.44 961.637 1158.5 930.582 1228.66 930.582 1288.47 930.582 1335.63 951.285 1368.98 992.692 1402.34 1034.1 1419.59 1090.46 1419.59 1160.62 1419.59 1238.83 1400.04 1300.94 1362.08 1348.1 1324.12 1395.26 1272.37 1418.26 1206.8 1418.26 1148.15 1420.56 1100.99 1394.11 1067.63 1341.2L1067.63 1341.2ZM1066.48 1153.72 1066.48 1219.28C1066.48 1258.38 1079.13 1290.59 1104.44 1317.04 1129.74 1343.5 1160.8 1357.3 1199.9 1357.3 1244.76 1357.3 1280.42 1340.05 1306.87 1305.54 1332.17 1271.04 1344.83 1222.73 1344.83 1160.62 1344.83 1108.86 1333.32 1067.45 1309.17 1038.7 1285.02 1008.79 1252.81 994.992 1211.41 994.992 1167.7 994.992 1133.19 1009.94 1106.74 1039.85 1079.13 1069.75 1066.48 1107.71 1066.48 1153.72L1066.48 1153.72ZM1877.36 1193.97 1548.41 1193.97C1549.56 1245.73 1563.36 1285.99 1589.82 1314.74 1616.27 1343.5 1653.08 1357.3 1700.23 1357.3 1753.14 1357.3 1801.45 1340.05 1845.16 1305.54L1845.16 1375.7C1803.75 1405.61 1749.69 1420.56 1682.98 1420.56 1617.42 1420.56 1565.66 1399.86 1527.71 1357.3 1489.75 1314.74 1471.35 1254.93 1471.35 1179.02 1471.35 1106.56 1492.05 1046.75 1533.46 1001.89 1574.86 955.886 1625.47 932.882 1686.43 932.882 1747.39 932.882 1794.55 952.435 1827.9 992.692 1861.26 1031.8 1878.51 1087.01 1878.51 1157.17L1877.36 1193.97 1877.36 1193.97ZM1800.3 1130.71C1800.3 1087.01 1789.95 1053.65 1769.24 1029.5 1748.54 1005.34 1719.79 993.842 1684.13 993.842 1648.48 993.842 1618.57 1006.49 1594.42 1031.8 1570.26 1057.1 1554.16 1090.46 1548.41 1130.71L1800.3 1130.71ZM1914.17 1386.05 1914.17 1334.3C1961.33 1364.2 2008.48 1379.15 2056.79 1379.15 2107.4 1379.15 2146.5 1368.8 2172.96 1346.95 2199.41 1325.09 2212.07 1296.34 2212.07 1258.38 2212.07 1225.03 2202.86 1198.57 2185.61 1177.87 2168.36 1158.32 2129.25 1130.71 2070.59 1096.21 2003.88 1057.1 1962.48 1024.9 1945.22 999.593 1927.97 973.139 1918.77 943.234 1918.77 909.879 1918.77 863.871 1937.17 824.765 1972.83 792.56 2008.48 760.355 2056.79 744.252 2116.6 744.252 2155.71 744.252 2194.81 751.153 2232.77 763.805L2232.77 810.963C2194.81 793.71 2153.41 784.509 2109.7 784.509 2064.84 784.509 2030.34 796.01 2003.88 817.864 1977.43 840.867 1964.78 868.472 1964.78 902.977 1964.78 936.333 1973.98 962.787 1991.23 982.34 2008.48 1001.89 2047.59 1029.5 2106.25 1062.85 2167.21 1097.36 2207.46 1128.41 2228.17 1154.87 2248.87 1181.32 2258.07 1212.38 2258.07 1248.03 2258.07 1298.64 2240.82 1338.9 2206.31 1371.1 2171.81 1403.31 2122.35 1418.26 2059.09 1418.26 2036.09 1418.26 2010.78 1414.81 1980.88 1407.91 1950.97 1401.01 1929.12 1395.26 1914.17 1386.05L1914.17 1386.05ZM2646.83 1388.35C2612.33 1409.06 2570.92 1420.56 2522.61 1420.56 2459.35 1420.56 2407.6 1398.71 2368.49 1355 2329.38 1311.29 2309.83 1254.93 2309.83 1183.62 2309.83 1110.01 2331.68 1049.05 2375.39 1001.89 2419.1 954.736 2475.46 930.582 2544.47 930.582 2580.12 930.582 2614.63 937.483 2647.98 952.435L2647.98 999.593C2614.63 978.89 2577.82 968.538 2538.72 968.538 2483.51 968.538 2439.8 988.091 2405.3 1027.2 2370.79 1066.3 2354.69 1118.06 2354.69 1180.17 2354.69 1241.13 2370.79 1289.44 2401.85 1326.24 2432.9 1363.05 2474.31 1381.45 2524.92 1381.45 2572.07 1381.45 2612.33 1368.8 2646.83 1344.65L2646.83 1388.35 2646.83 1388.35ZM2925.18 985.791C2911.38 975.439 2895.27 970.838 2875.72 970.838 2838.92 970.838 2807.86 990.391 2783.71 1028.35 2758.4 1066.3 2746.9 1120.36 2746.9 1190.52L2746.9 1410.21 2705.49 1410.21 2705.49 942.084 2746.9 942.084 2746.9 1045.6 2749.2 1045.6C2759.55 1009.94 2776.81 982.34 2799.81 962.787 2822.81 943.234 2849.27 932.882 2880.32 932.882 2897.57 932.882 2913.68 935.183 2926.33 940.934L2926.33 985.791 2925.18 985.791 2925.18 985.791ZM2991.89 824.765C2982.69 824.765 2974.64 821.314 2967.74 814.413 2960.83 807.512 2957.38 799.461 2957.38 789.109 2957.38 778.758 2960.83 770.706 2967.74 764.955 2974.64 759.204 2982.69 755.754 2991.89 755.754 3001.09 755.754 3009.14 759.204 3017.19 764.955 3024.09 770.706 3027.55 778.758 3027.55 789.109 3027.55 798.311 3024.09 807.512 3017.19 814.413 3009.14 821.314 3001.09 824.765 2991.89 824.765ZM2971.19 1409.06 2971.19 942.084 3012.59 942.084 3012.59 1409.06 2971.19 1409.06ZM3156.37 1326.24 3154.07 1326.24 3154.07 1624.14 3112.66 1624.14 3112.66 942.084 3154.07 942.084 3154.07 1038.7 3156.37 1038.7C3173.62 1004.19 3196.62 977.739 3227.68 959.336 3258.73 940.934 3293.24 931.732 3330.04 931.732 3389.85 931.732 3435.86 952.435 3469.22 992.692 3502.57 1034.1 3518.67 1089.31 3518.67 1159.47 3518.67 1237.68 3499.12 1300.94 3461.16 1349.25 3423.21 1397.56 3372.6 1421.71 3310.49 1421.71 3241.48 1420.56 3189.72 1389.51 3156.37 1326.24ZM3154.07 1152.57 3154.07 1211.23C3154.07 1258.38 3169.02 1298.64 3197.77 1332 3227.68 1365.35 3265.63 1382.6 3313.94 1382.6 3361.1 1382.6 3400.2 1361.9 3430.11 1321.64 3460.01 1280.24 3474.97 1227.33 3474.97 1160.62 3474.97 1101.96 3461.16 1055.95 3433.56 1021.45 3405.96 986.941 3370.3 969.688 3324.29 969.688 3270.23 969.688 3227.68 988.091 3197.77 1024.9 3167.87 1061.7 3154.07 1103.11 3154.07 1152.57ZM3772.86 1402.16C3751.01 1412.51 3730.31 1417.11 3711.9 1417.11 3642.89 1417.11 3608.39 1375.7 3608.39 1292.89L3608.39 981.19 3524.42 981.19 3524.42 943.234 3608.39 943.234 3608.39 821.314 3629.09 814.413 3649.79 807.512 3649.79 943.234 3772.86 943.234 3772.86 981.19 3649.79 981.19 3649.79 1289.44C3649.79 1321.64 3654.4 1344.65 3664.75 1359.6 3675.1 1374.55 3692.35 1381.45 3716.51 1381.45 3733.76 1381.45 3752.16 1375.7 3772.86 1364.2L3772.86 1402.16 3772.86 1402.16Z" fill="#007ACC" transform="matrix(1.00015 0 0 1 231 0)"/><rect x="333" y="619" width="3747" height="1076" fill="#FFFFFF"/><g clip-path="url(#clip1)"><g clip-path="url(#clip2)"><g clip-path="url(#clip3)"><path d="M0 16269.2C0 16269.2 689.611 16201.6 689.611 16086.2L689.611 16362.1C689.611 16362.1 689.611 16477.5 0 16545L0 16269.2Z" fill="url(#fill4)" transform="matrix(1 0 0 1.00058 708.189 670)"/><path d="M0 15900.5C0 15900.5 689.611 15832.9 689.611 15717.5L689.611 15993.3C689.611 15993.3 689.611 16108.7 0 16176.3L0 15900.5Z" fill="url(#fill5)" transform="matrix(1 0 0 1.00058 708.189 670)"/><path d="M968.27 861.31 996.417 737.461C1030.19 745.906 1061.16 759.979 1094.93 765.609 1128.71 771.238 1162.49 768.424 1196.26 762.794 1215.97 759.979 1227.23 745.906 1230.04 726.202 1232.86 706.499 1221.6 692.426 1204.71 683.981L1142.78 655.834 1058.34 616.428C1004.86 585.466 971.085 537.615 973.899 470.061 976.714 402.508 1010.49 354.657 1069.6 323.695 1125.9 295.548 1185 287.103 1246.93 295.548 1286.34 301.177 1325.74 312.436 1365.15 323.695L1331.37 447.543C1297.59 436.284 1263.82 425.025 1230.04 422.211 1207.52 419.396 1179.38 422.211 1156.86 427.84 1123.08 439.099 1120.27 475.691 1148.41 495.394 1168.12 509.468 1193.45 517.912 1215.97 526.356 1246.93 540.43 1277.89 551.689 1306.04 568.577 1418.63 638.946 1413 799.386 1294.78 861.31 1232.86 892.272 1168.12 900.716 1100.56 895.087 1058.34 892.272 1013.31 881.013 968.27 861.31L968.27 861.31ZM2243.35 886.643 2105.42 886.643 2094.17 850.051C2060.39 883.828 2020.98 897.901 1975.95 897.901 1908.39 897.901 1857.73 861.31 1838.02 799.386 1821.14 734.647 1849.28 669.908 1905.58 636.131 1953.43 607.983 2006.91 602.354 2060.39 596.725 2066.02 596.725 2071.65 596.725 2080.09 596.725 2077.28 571.392 2063.2 560.133 2032.24 557.318 1984.39 554.503 1939.35 562.948 1891.5 588.28L1863.36 486.95C1899.95 475.691 1936.54 461.617 1973.13 458.802 2018.17 453.173 2066.02 453.173 2111.05 461.617 2187.05 475.691 2232.09 534.8 2234.9 616.428 2237.72 672.722 2237.72 729.017 2237.72 785.312 2237.72 816.274 2237.72 858.495 2243.35 886.643L2243.35 886.643ZM2085.72 692.426C2057.57 689.611 2032.24 692.426 2006.91 706.499 1990.02 714.943 1981.58 731.832 1984.39 748.72 1987.21 759.979 1995.65 774.053 2004.09 779.682 2035.06 796.571 2077.28 774.053 2082.91 740.276 2088.54 726.202 2085.72 709.314 2085.72 692.426L2085.72 692.426ZM2969.55 886.643 2831.63 886.643 2820.37 850.051C2786.59 883.828 2747.18 897.901 2702.15 897.901 2634.59 897.901 2583.93 861.31 2564.23 799.386 2547.34 734.647 2575.49 669.908 2631.78 636.131 2679.63 607.983 2733.11 602.354 2786.59 596.725 2792.22 596.725 2797.85 596.725 2806.29 596.725 2803.48 571.392 2789.41 560.133 2758.44 557.318 2710.59 554.503 2665.56 562.948 2617.71 588.28L2589.56 486.95C2626.15 475.691 2662.74 461.617 2699.33 458.802 2744.37 453.173 2792.22 453.173 2837.26 461.617 2913.25 475.691 2958.29 534.8 2961.1 616.428 2963.92 672.722 2963.92 729.017 2963.92 785.312 2963.92 816.274 2963.92 858.495 2969.55 886.643L2969.55 886.643ZM2811.92 692.426C2783.78 689.611 2758.44 692.426 2733.11 706.499 2716.22 714.943 2707.78 731.832 2710.59 748.72 2713.41 759.979 2721.85 774.053 2730.3 779.682 2761.26 796.571 2803.48 774.053 2809.11 740.276 2814.74 726.202 2811.92 709.314 2811.92 692.426L2811.92 692.426ZM1770.47 577.021C1714.18 565.762 1660.7 554.503 1621.29 607.983 1595.96 641.76 1595.96 700.87 1621.29 734.647 1660.7 788.127 1716.99 776.868 1776.1 768.424L1790.17 881.013C1795.8 917.605 1790.17 881.013 1784.54 883.828 1677.58 911.975 1553.74 892.272 1497.44 827.533 1441.15 759.979 1432.7 681.167 1458.03 599.539 1483.37 517.912 1545.29 472.876 1624.1 455.988 1674.77 444.729 1728.25 444.729 1778.91 458.802L1792.99 461.617 1770.47 577.021 1770.47 577.021ZM2336.23 267.4 2488.23 267.4 2488.23 883.828 2336.23 883.828 2336.23 267.4Z" fill="#231F20" transform="matrix(1 0 0 1.00058 708.189 670)"/><path d="M0 698.055 0 785.312C0 799.386 318.065 824.718 523.541 872.569 622.057 850.051 698.055 821.904 698.055 785.312L698.055 698.055C698.055 661.464 624.872 633.316 523.541 610.798 318.065 658.649 0 683.981 0 698.055" fill="url(#fill6)" transform="matrix(1 0 0 1.00058 708.189 670)"/><path d="M0 349.028 0 436.284C0 450.358 318.065 475.691 523.541 523.541 622.057 501.023 698.055 472.876 698.055 436.284L698.055 349.028C698.055 312.436 624.872 284.289 523.541 261.771 318.065 309.621 0 334.954 0 349.028" fill="url(#fill7)" transform="matrix(1 0 0 1.00058 708.189 670)"/><path d="M0 523.541 0 785.312C0 762.794 698.055 720.573 698.055 610.798L698.055 349.028C698.055 458.802 0 501.023 0 523.541" fill="url(#fill8)" transform="matrix(1 0 0 1.00058 708.189 670)"/><path d="M0 174.514 0 436.284C0 413.767 698.055 371.545 698.055 261.771L698.055 0C698.055 109.775 0 151.996 0 174.514" fill="url(#fill9)" transform="matrix(1 0 0 1.00058 708.189 670)"/><path d="M0 872.569 0 1134.34C0 1111.82 698.055 1069.6 698.055 959.826L698.055 698.055C698.055 807.83 0 850.051 0 872.569" fill="url(#fill10)" transform="matrix(1 0 0 1.00058 708.189 670)"/></g></g></g></g></svg>